<svg id="图层_1" data-name="图层 1" xmlns="http://www.w3.org/2000/svg" viewBox="0 0 562.86 378.5"><defs><style>.cls-1{fill:#ff7bac;}.cls-2{fill:#6cf;}.cls-3{fill:#39c5bb;}.cls-4,.cls-5{stroke:#000;stroke-miterlimit:10;}.cls-5{fill:#fff;}.cls-6{fill:#c33;}.cls-7{font-size:25.36px;font-family:Consolas;}</style></defs><path class="cls-1" d="M23.5,438.5c80.6-39.9,131.59-116.65,130-197-1.31-66.23-37.91-112.81-52-129,10.85,6.4,78.36,47.72,94,131,13.26,70.65-15.9,144.35-75,191Z" transform="translate(-23.5 -112.5)"/><polygon class="cls-2" points="120 21 383.07 21 422 68 120 21"/><path class="cls-3" d="M230.5,180.5l58.93,11,.07,235h-36c22-151-5-201-23-246" transform="translate(-23.5 -112.5)"/><path class="cls-2" d="M395.14,426.5c8.45,1.56,15,3.4,21.36,1,2.21-.83,5,1.36,5-1l-1.32-220.35a5.69,5.69,0,0,0-5.69-5.65H403a5.69,5.69,0,0,0-5.69,5.75l2,174.18A5.69,5.69,0,0,1,389.16,384,371.91,371.91,0,0,1,348.5,320.5c-33.45-66.25-35.45-120.1-36-120C311.4,200.71,325.55,413.67,395.14,426.5Z" transform="translate(-23.5 -112.5)"/><polygon class="cls-4" points="417 201 562.36 201 562.36 213.07 430 213 430 244 479 244 476 257 429.93 257 430 300 479 300 478.79 314 417 314 417 201"/><polygon class="cls-4" points="517 213 529.5 222 529.5 314 517 314 517 213"/><path class="cls-5" d="M516.5,390.5" transform="translate(-23.5 -112.5)"/><path class="cls-6" d="M539.5,158.5c-21.52-8.54-44.06,7.16-45,5-1.05-2.42,25-27.4,49-18,23.16,9.06,26.28,42.91,24,44C565.52,190.45,559.66,166.5,539.5,158.5Z" transform="translate(-23.5 -112.5)"/><path class="cls-6" d="M497,168c-.4-2.27,15.91-9.91,31.4-6.52l.1,0c13.69,3,22.81,11.31,22,13-.67,1.4-7.78-2.52-22-5C508.31,166,497.32,169.86,497,168Z" transform="translate(-23.5 -112.5)"/><text class="cls-7" transform="translate(4.79 370.84) scale(1.04 1)">Muska Network Group.</text></svg>